<svg xmlns="http://www.w3.org/2000/svg" viewBox="0 0 512 512"><defs><style>.cls-1{fill:#29a6dd;}.cls-2{fill:#fff;}</style></defs><title>Artboard 1</title><g id="Layer_1" data-name="Layer 1"><path class="cls-1" d="M448,0H0V416H160v84a12,12,0,0,0,19.1,9.7L304,416H512V0Z"/></g><g id="Layer_3" data-name="Layer 3"><path class="cls-2" d="M166.25,174.85H128.94v-3.53q0-15.37-4.66-22.18t-13.49-6.81q-11.6,0-16.89,12.48t-5.29,56.34q0,41.6,5.55,52.18t16.89,10.59A16.37,16.37,0,0,0,125.54,266q5.16-7.94,5.17-25.84v-2h37.56v5.3q0,28.23-13.49,43.1T111.55,301.4q-24.19,0-37.18-9.2T56,266.36q-5.43-16.63-5.42-57.73,0-41.85,5.29-58.23a51.07,51.07,0,0,1,18.4-26.09q13.11-9.7,39.08-9.71,26.2,0,39.57,13.24t13.36,41.46Z"/><path class="cls-2" d="M279.69,117.37l49.41,182H289l-10.08-40.33H227l-10.34,40.33H179.11l50.42-182Zm-45.37,114.2h36.8l-18.9-79.16Z"/><path class="cls-2" d="M460.44,174.85H423.13v-3.53q0-15.37-4.67-22.18T405,142.33q-11.6,0-16.89,12.48t-5.3,56.34q0,41.6,5.55,52.18t16.89,10.59a16.38,16.38,0,0,0,14.5-7.94q5.16-7.94,5.16-25.84v-2h37.56v5.3q0,28.23-13.48,43.1T405.73,301.4q-24.19,0-37.18-9.2t-18.4-25.84q-5.43-16.63-5.42-57.73,0-41.85,5.29-58.23a51.08,51.08,0,0,1,18.41-26.09q13.1-9.7,39.07-9.71,26.22,0,39.58,13.24t13.36,41.46Z"/></g></svg>