<?xml version="1.0" encoding="utf-8"?>
<!-- Generator: Adobe Illustrator 22.0.1, SVG Export Plug-In . SVG Version: 6.00 Build 0)  -->
<svg version="1.1" id="Layer_1" xmlns="http://www.w3.org/2000/svg" xmlns:xlink="http://www.w3.org/1999/xlink" x="0px" y="0px"
	 viewBox="0 0 512 512" style="enable-background:new 0 0 512 512;" xml:space="preserve">
<style type="text/css">
	.st0{fill:#29A6DD;}
	.st1{fill:#FFFFFF;}
</style>
<path class="st0" d="M448,0H64C28.7,0,0,28.7,0,64v288c0,35.3,28.7,64,64,64h96v84c0,9.8,11.2,15.5,19.1,9.7L304,416h144
	c35.3,0,64-28.7,64-64V64C512,28.7,483.3,0,448,0z"/>
<g>
	<path class="st1" d="M167.2,185.6h-40.1c0-12.5-1.4-20.5-4.3-24.1c-2.9-3.6-7.2-5.3-12.9-5.3c-8.1,0-13.5,3.2-16.2,9.7
		c-2.7,6.4-4,16.5-4,30.1v21.4c0,14.3,1.2,24.6,3.6,30.9c2.4,6.3,7.5,9.5,15.4,9.5c6.7,0,11.6-2.3,14.6-7c3-4.7,4.5-11.6,4.5-20.9
		v-3h40.4v3.6c0,17.4-5,30.7-14.9,40c-9.9,9.2-25.4,13.8-46.3,13.8c-19,0-33.6-5.1-43.8-15.3c-10.2-10.2-15.3-26-15.3-47.4l0.3-25.2
		c0.4-27.7,6.2-45.7,17.5-54.1c11.3-8.3,25.6-12.5,43.1-12.5c20.4,0,35.2,4.4,44.6,13.2c9.3,8.8,14,21.5,14,38.2V185.6z"/>
	<path class="st1" d="M312.5,249.2c0.2,8.5,0.5,15,0.9,19.3c0.4,4.4,0.9,8.9,1.5,13.7H276c-0.4-6.1-1.1-12.8-2.1-19.9
		c-8.9,15.1-21.8,22.6-38.6,22.6c-13.1,0-23.1-4.1-30-12.2c-6.9-8.1-10.4-19.6-10.4-34.5c0-17,4.5-29.7,13.5-38
		c9-8.3,26.5-12.5,52.4-12.5h11v-16.9c0-6.5-1.2-11.3-3.7-14.3c-2.5-3-6.9-4.5-13.2-4.5c-5.7,0-10,1.8-12.8,5.3
		c-2.8,3.6-4.2,9.6-4.2,18.1h-39.5v-2.1c0-16,5-27.4,15-34.2c10-6.7,24.3-10.1,42.9-10.1c20.2,0,34.6,3.9,43.2,11.7
		c8.6,7.8,12.9,19.9,12.9,36.1V249.2z M273,221.6v-11.9h-3.3c-10.9,0-19.3,1.4-25.1,4.2c-5.8,2.8-8.8,9.8-8.8,21.1
		c0,10.1,1.4,16.7,4.2,19.9c2.8,3.2,6.5,4.8,11.3,4.8c7.1,0,12.5-2.9,16.2-8.8C271.2,245,273,235.2,273,221.6z"/>
	<path class="st1" d="M464.3,185.6h-40.1c0-12.5-1.4-20.5-4.3-24.1c-2.9-3.6-7.2-5.3-12.9-5.3c-8.1,0-13.5,3.2-16.2,9.7
		c-2.7,6.4-4,16.5-4,30.1v21.4c0,14.3,1.2,24.6,3.6,30.9c2.4,6.3,7.5,9.5,15.4,9.5c6.7,0,11.6-2.3,14.6-7c3-4.7,4.5-11.6,4.5-20.9
		v-3h40.4v3.6c0,17.4-5,30.7-14.9,40c-9.9,9.2-25.3,13.8-46.3,13.8c-19,0-33.6-5.1-43.8-15.3c-10.2-10.2-15.3-26-15.3-47.4l0.3-25.2
		c0.4-27.7,6.2-45.7,17.5-54.1c11.3-8.3,25.6-12.5,43.1-12.5c20.4,0,35.2,4.4,44.6,13.2c9.3,8.8,14,21.5,14,38.2V185.6z"/>
</g>
</svg>
