<?xml version="1.0" encoding="UTF-8" standalone="no"?>
<svg
   xmlns:dc="http://purl.org/dc/elements/1.1/"
   xmlns:cc="http://creativecommons.org/ns#"
   xmlns:rdf="http://www.w3.org/1999/02/22-rdf-syntax-ns#"
   xmlns:svg="http://www.w3.org/2000/svg"
   xmlns="http://www.w3.org/2000/svg"
   id="svg12"
   version="1.1"
   viewBox="0 0 248 251"
   height="251px"
   width="248px">
  <metadata
     id="metadata16">
    <rdf:RDF>
      <cc:Work
         rdf:about="">
        <dc:format>image/svg+xml</dc:format>
        <dc:type
           rdf:resource="http://purl.org/dc/dcmitype/StillImage" />
        <dc:title>CAC logo</dc:title>
      </cc:Work>
    </rdf:RDF>
  </metadata>
  <!-- Generator: Sketch 43.2 (39069) - http://www.bohemiancoding.com/sketch -->
  <title
     id="title2">CAC logo</title>
  <desc
     id="desc4">Created with Sketch.</desc>
  <defs
     id="defs6" />
  <g
     fill-rule="evenodd"
     fill="none"
     stroke-width="1"
     stroke="none"
     id="Page-1">
    <g
       id="CAC-logo">
      <polygon
         points="0 0 248 0 248 186 90.6054688 186 108.863281 250.425781 42.3203125 186 0 186"
         fill="#29A6DD"
         id="Rectangle" />
      <path
         fill="#FFFFFF"
         id="CAC"
         d="M79.1853501,74.154 L79.1853501,65.356 C79.1853501,47.428 69.2253501,32.488 48.6413501,32.488 C27.0613501,32.488 17.1013501,46.266 17.1013501,63.198 L17.1013501,124.95 C17.1013501,141.882 27.0613501,155.66 48.6413501,155.66 C69.2253501,155.66 79.1853501,141.882 79.1853501,124.95 L79.1853501,111.172 L58.6013501,111.172 L58.6013501,125.614 C58.6013501,133.416 56.1113501,137.732 48.6413501,137.732 C40.3413501,137.732 37.6853501,133.416 37.6853501,124.452 L37.6853501,63.696 C37.6853501,54.732 40.3413501,50.416 48.6413501,50.416 C53.9533501,50.416 58.6013501,54.732 58.6013501,64.858 L58.6013501,74.154 L79.1853501,74.154 Z M124.507822,58.052 L116.373822,109.512 L132.973822,109.512 L124.839822,58.052 L124.507822,58.052 Z M113.385822,127.44 L109.733822,154 L89.8138218,154 L111.891822,34.148 L137.455822,34.148 L159.533822,154 L139.613822,154 L135.961822,127.44 L113.385822,127.44 Z M231.236236,74.154 L231.236236,65.356 C231.236236,47.428 221.276236,32.488 200.692236,32.488 C179.112236,32.488 169.152236,46.266 169.152236,63.198 L169.152236,124.95 C169.152236,141.882 179.112236,155.66 200.692236,155.66 C221.276236,155.66 231.236236,141.882 231.236236,124.95 L231.236236,111.172 L210.652236,111.172 L210.652236,125.614 C210.652236,133.416 208.162236,137.732 200.692236,137.732 C192.392236,137.732 189.736236,133.416 189.736236,124.452 L189.736236,63.696 C189.736236,54.732 192.392236,50.416 200.692236,50.416 C206.004236,50.416 210.652236,54.732 210.652236,64.858 L210.652236,74.154 L231.236236,74.154 Z" />
    </g>
  </g>
</svg>
