<svg id="bf80ae5b-28cc-4281-83dc-20a08477b388" data-name="Layer 1" xmlns="http://www.w3.org/2000/svg" viewBox="0 0 340 42">
  <defs>
    <style>
      .b2d190c1-a552-4292-9cf1-fb8dbd789200 {
        fill: #e70889;
      }

      .ba55c3df-1064-4761-a847-56cffd76db45 {
        fill: #00b8e5;
      }

      .bf832078-9de5-40e8-8e92-193fb6ba3bdd {
        fill: #f5b01a;
      }

      .b1edd2ff-bd25-4aaa-bb09-a205ba0c1ded {
        fill: #d0232a;
      }

      .bfa942da-c691-4cc9-935e-be3fcca30a6d {
        fill: #42ac49;
      }

      .a8a92c23-191a-4f0a-a80b-b46dfb69edac {
        fill: #6b6d70;
        fill-rule: evenodd;
      }

      .b1370275-62a8-492e-801c-f29941489c86 {
        fill: none;
      }
    </style>
  </defs>
  <title>GCDI-logo</title>
  <g>
    <g>
      <rect class="b2d190c1-a552-4292-9cf1-fb8dbd789200" x="12.9" y="5.7" width="20.6" height="1.06"/>
      <rect class="ba55c3df-1064-4761-a847-56cffd76db45" x="12.9" y="0.4" width="20.6" height="1.06"/>
      <rect class="bf832078-9de5-40e8-8e92-193fb6ba3bdd" x="12.9" y="3.1" width="20.6" height="1.06"/>
      <rect class="b1edd2ff-bd25-4aaa-bb09-a205ba0c1ded" x="12.9" y="11.1" width="20.6" height="1.06"/>
      <rect class="bfa942da-c691-4cc9-935e-be3fcca30a6d" x="12.9" y="8.4" width="20.6" height="1.06"/>
      <rect class="b2d190c1-a552-4292-9cf1-fb8dbd789200" x="96.8" y="251.6" width="20.6" height="1.06" transform="translate(279.7 -83.5) rotate(90)"/>
      <rect class="ba55c3df-1064-4761-a847-56cffd76db45" x="102.1" y="251.6" width="20.6" height="1.06" transform="translate(285.1 -88.8) rotate(90)"/>
      <rect class="bf832078-9de5-40e8-8e92-193fb6ba3bdd" x="99.4" y="251.6" width="20.6" height="1.06" transform="translate(282.4 -86.1) rotate(90)"/>
      <rect class="b1edd2ff-bd25-4aaa-bb09-a205ba0c1ded" x="91.4" y="251.6" width="20.6" height="1.06" transform="translate(274.4 -78.1) rotate(90)"/>
      <rect class="bfa942da-c691-4cc9-935e-be3fcca30a6d" x="94.1" y="251.6" width="20.6" height="1.06" transform="translate(277.1 -80.8) rotate(90)"/>
      <rect class="b2d190c1-a552-4292-9cf1-fb8dbd789200" y="27.5" width="20.6" height="1.06"/>
      <rect class="ba55c3df-1064-4761-a847-56cffd76db45" y="22.1" width="20.6" height="1.06"/>
      <rect class="bf832078-9de5-40e8-8e92-193fb6ba3bdd" y="24.8" width="20.6" height="1.06"/>
      <rect class="b1edd2ff-bd25-4aaa-bb09-a205ba0c1ded" y="32.8" width="20.6" height="1.06"/>
      <rect class="bfa942da-c691-4cc9-935e-be3fcca30a6d" y="30.1" width="20.6" height="1.06"/>
      <rect class="b2d190c1-a552-4292-9cf1-fb8dbd789200" x="75" y="238.7" width="20.6" height="1.06" transform="translate(245.1 -74.7) rotate(90)"/>
      <rect class="ba55c3df-1064-4761-a847-56cffd76db45" x="80.4" y="238.7" width="20.6" height="1.06" transform="translate(250.5 -80) rotate(90)"/>
      <rect class="bf832078-9de5-40e8-8e92-193fb6ba3bdd" x="77.7" y="238.7" width="20.6" height="1.06" transform="translate(247.8 -77.3) rotate(90)"/>
      <rect class="b1edd2ff-bd25-4aaa-bb09-a205ba0c1ded" x="69.7" y="238.7" width="20.6" height="1.06" transform="translate(239.8 -69.3) rotate(90)"/>
      <rect class="bfa942da-c691-4cc9-935e-be3fcca30a6d" x="72.4" y="238.7" width="20.6" height="1.06" transform="translate(242.4 -72) rotate(90)"/>
    </g>
    <g>
      <path class="a8a92c23-191a-4f0a-a80b-b46dfb69edac" d="M195.4,229.1h3.5v3.5h-3.5v-3.5Zm0,0" transform="translate(-79.4 -228.6)"/>
      <path class="a8a92c23-191a-4f0a-a80b-b46dfb69edac" d="M221.5,229.1H225v3.5h-3.5v-3.5Zm0,0" transform="translate(-79.4 -228.6)"/>
      <path class="a8a92c23-191a-4f0a-a80b-b46dfb69edac" d="M304.5,229.1H308v3.5h-3.5v-3.5Zm0,0" transform="translate(-79.4 -228.6)"/>
      <path class="a8a92c23-191a-4f0a-a80b-b46dfb69edac" d="M324.6,229.1h3.5v3.5h-3.5v-3.5Zm0,0" transform="translate(-79.4 -228.6)"/>
      <path class="a8a92c23-191a-4f0a-a80b-b46dfb69edac" d="M362.9,229.1h3.5v3.5h-3.5v-3.5Zm0,0" transform="translate(-79.4 -228.6)"/>
      <path class="a8a92c23-191a-4f0a-a80b-b46dfb69edac" d="M136.3,258.8a19.5,19.5,0,0,1-6,.9c-7,0-6.9-6.2-6.9-14.4s-.1-14.3,6.9-14.3c4.5,0,6.3,2.2,6.3,6.5h2.9c.1-6.3-3.1-8.9-9.2-8.9-10.5,0-9.8,10.5-9.8,16.7s-.7,16.8,9.8,16.8a30,30,0,0,0,8.9-1.3V244.6h-9.4V247h6.5v11.8Zm16.7,3.3c7.6,0,8.2-7.6,8.2-9.9h-3.1c0,4.2-1.4,7.5-5.1,7.5-6.8,0-6.9-5.8-6.9-14.4s.1-14.3,6.9-14.3c4.1,0,5.1,3.3,5.1,6.9h2.8c0-2.9-.1-9.3-7.9-9.3-9.7,0-9.8,8-9.8,16.7s.1,16.8,9.8,16.8Zm22.4-30.5h3.7c8,0,9.3,2.7,9.3,11.9,0,13.2-.9,15.6-9.5,15.6h-3.5V231.6Zm-2.9,29.9h7.4c9.8,0,11.3-5.3,11.3-16s-1.1-16.3-10.1-16.3h-8.6v32.3Zm23.3,0h2.7V238.9h-2.7v22.6Zm13.8-20.9c2.5,0,5.1,1.8,5.1,6.5,0,6.6-.2,7.7-.9,9.4a4.3,4.3,0,0,1-4,2.6c-4.9,0-4.9-4.7-4.9-9.4s.1-9.1,4.7-9.1Zm5.3,1.1h-.1a6.3,6.3,0,0,0-5.6-3.2,6.4,6.4,0,0,0-6.3,4.5c-.6,2.4-.7,2.5-.7,7.7s.5,10.6,6.9,10.6a6.2,6.2,0,0,0,5.5-2.7h.1c0,6.7.3,9.6-4.9,9.6-2.5,0-4.5-1.6-4.3-4.2h-2.7c-.1,2.3,1,6.3,6.6,6.3s8-2.9,8-7.9v-19c0-1.2,0-2.3.1-4.4h-2.6v2.8Zm7.1,19.8h2.7V238.9H222v22.6Zm9.5-20.5v16.2c0,2.8,1,4.4,4.7,4.4l2.5-.2v-2.3h-2.1c-2.1,0-2.5-.7-2.5-3.7V241h4.6v-2.1h-4.6v-5.8l-2.6,1.1v4.7h-3.7V241Zm21.8,13.1a5.8,5.8,0,0,1-5.6,5.7c-2.7,0-4-2.1-4-4.7,0-5.5,5.8-5,9.6-5.2v4.2Zm.2,7.4h2.8a44,44,0,0,1-.3-5.7V244.4c0-5.7-4.7-6-7-6-3.9,0-7.3,1.7-7.5,6.1h2.8c0-2.7,2-3.9,4.5-3.9s4.5,2,4.5,5.3v1.9c-4.5.4-12.5-.5-12.5,7.5,0,3.9,2.2,6.6,6.2,6.6a7.1,7.1,0,0,0,6.4-3.2h.1v2.8Zm7.1,0h2.7V229.2h-2.7v32.3Zm18,0h2.9V229.2h-2.9v32.3Zm10.3-14.2c0-5,2.4-6.7,4.8-6.7s4.2,2.5,4.2,5.1v15.8h2.7V245.6c0-3-.6-7.2-6.2-7.2a6.7,6.7,0,0,0-5.5,3.3h0v-2.8h-2.7v22.6h2.7V247.3ZM305,261.5h2.7V238.9H305v22.6Zm9.5-20.5v16.2c0,2.8,1.1,4.4,4.7,4.4l2.6-.2v-2.3h-2.1c-2.2,0-2.5-.7-2.5-3.7V241h4.6v-2.1h-4.6v-5.8l-2.7,1.1v4.7h-3.6V241ZM325,261.5h2.7V238.9H325v22.6Zm18.8-7.4a5.8,5.8,0,0,1-5.6,5.7c-2.7,0-4-2.1-4-4.7,0-5.5,5.8-5,9.6-5.2v4.2Zm.2,7.4h2.8a44,44,0,0,1-.3-5.7V244.4c0-5.7-4.7-6-7-6-4,0-7.3,1.7-7.5,6.1h2.8c0-2.7,2-3.9,4.5-3.9s4.5,2,4.5,5.3v1.9c-4.5.4-12.5-.5-12.5,7.5,0,3.9,2.2,6.6,6.2,6.6a7.1,7.1,0,0,0,6.4-3.2h.1v2.8Zm8.7-20.5v16.2c0,2.8,1.1,4.4,4.7,4.4l2.6-.2v-2.3h-2.1c-2.2,0-2.5-.7-2.5-3.7V241H360v-2.1h-4.6v-5.8l-2.7,1.1v4.7h-3.6V241Zm10.6,20.5h2.6V238.9h-2.6v22.6Zm8.6-22.6H369l6.7,22.6h3.1l6.7-22.6h-2.6l-5.5,19.2h-.1l-5.4-19.2Zm30.7,11.8c0-6.7,0-12.3-7.8-12.3-5.1,0-7.8,3-7.8,9.6v5.5c0,6.9,3.9,8.4,7.8,8.4s7.5-1.8,7.8-7.3h-2.8c0,3-1.7,5.2-5,5.2s-5.1-4.2-5.1-7.3v-1.8Zm-12.9-2.1c0-5,.8-8,5.1-8s5.1,3,5.1,8Zm29.4,6.9c0-7.5-10.2-6-10.2-11.6a3.3,3.3,0,0,1,3.5-3.3c3,0,3.8,1.5,3.9,4.4H419c0-3.5-1.5-6.6-5.9-6.6s-6.8,1.5-6.8,5.7c0,7.5,10.1,5.9,10.1,11.8,0,2.5-1.2,4-3.8,4s-4.2-2-4.2-5.1h-2.7c-.1,4.8,1.9,7.1,6.7,7.1s6.7-2.1,6.7-6.4Zm0,0" transform="translate(-79.4 -228.6)"/>
    </g>
    <rect class="b1370275-62a8-492e-801c-f29941489c86" x="1" width="339" height="42.02"/>
  </g>
</svg>
