<svg id="f6c37eb2-44d4-4d69-b759-ef131cf04ec9" data-name="Layer 1" xmlns="http://www.w3.org/2000/svg" viewBox="0 0 507.3 62.2">
  <defs>
    <style>
      .bb6a6379-082b-474c-8671-381c4b78f9de {
        fill: #e70889;
      }

      .ac46bf0e-0b67-4f3c-bab4-abdae70b25de {
        fill: #00b8e5;
      }

      .e51419d1-940c-4522-a9c3-4725595ae4a9 {
        fill: #f5b01a;
      }

      .a5efe493-7bdf-4e84-afa3-cfa655ce2493 {
        fill: #d0232a;
      }

      .a957352a-1694-4c3f-b8c5-86d58e0dea24 {
        fill: #42ac49;
      }

      .fcbd4e40-d6b2-41a5-9230-616eac2145fd {
        fill: #333;
        fill-rule: evenodd;
      }
    </style>
  </defs>
  <title>GCDI-logo-darker</title>
  <g>
    <g>
      <rect class="bb6a6379-082b-474c-8671-381c4b78f9de" x="19.3" y="8.6" width="30.7" height="1.58"/>
      <rect class="ac46bf0e-0b67-4f3c-bab4-abdae70b25de" x="19.3" y="0.6" width="30.7" height="1.58"/>
      <rect class="e51419d1-940c-4522-a9c3-4725595ae4a9" x="19.3" y="4.6" width="30.7" height="1.58"/>
      <rect class="a5efe493-7bdf-4e84-afa3-cfa655ce2493" x="19.3" y="16.6" width="30.7" height="1.58"/>
      <rect class="a957352a-1694-4c3f-b8c5-86d58e0dea24" x="19.3" y="12.6" width="30.7" height="1.58"/>
      <rect class="bb6a6379-082b-474c-8671-381c4b78f9de" x="-127.7" y="103.4" width="30.7" height="1.58" transform="translate(145.4 147.6) rotate(90)"/>
      <rect class="ac46bf0e-0b67-4f3c-bab4-abdae70b25de" x="-119.7" y="103.4" width="30.7" height="1.58" transform="translate(153.4 139.6) rotate(90)"/>
      <rect class="e51419d1-940c-4522-a9c3-4725595ae4a9" x="-123.7" y="103.4" width="30.7" height="1.58" transform="translate(149.4 143.6) rotate(90)"/>
      <rect class="a5efe493-7bdf-4e84-afa3-cfa655ce2493" x="-135.7" y="103.4" width="30.7" height="1.58" transform="translate(137.4 155.6) rotate(90)"/>
      <rect class="a957352a-1694-4c3f-b8c5-86d58e0dea24" x="-131.7" y="103.4" width="30.7" height="1.58" transform="translate(141.4 151.6) rotate(90)"/>
      <rect class="bb6a6379-082b-474c-8671-381c4b78f9de" y="41" width="30.7" height="1.58"/>
      <rect class="ac46bf0e-0b67-4f3c-bab4-abdae70b25de" y="33" width="30.7" height="1.58"/>
      <rect class="e51419d1-940c-4522-a9c3-4725595ae4a9" y="37" width="30.7" height="1.58"/>
      <rect class="a5efe493-7bdf-4e84-afa3-cfa655ce2493" y="49" width="30.7" height="1.58"/>
      <rect class="a957352a-1694-4c3f-b8c5-86d58e0dea24" y="45" width="30.7" height="1.58"/>
      <rect class="bb6a6379-082b-474c-8671-381c4b78f9de" x="-160.1" y="84.1" width="30.7" height="1.58" transform="translate(93.7 160.7) rotate(90)"/>
      <rect class="ac46bf0e-0b67-4f3c-bab4-abdae70b25de" x="-152.1" y="84.1" width="30.7" height="1.58" transform="translate(101.7 152.7) rotate(90)"/>
      <rect class="e51419d1-940c-4522-a9c3-4725595ae4a9" x="-156.1" y="84.1" width="30.7" height="1.58" transform="translate(97.7 156.7) rotate(90)"/>
      <rect class="a5efe493-7bdf-4e84-afa3-cfa655ce2493" x="-168.1" y="84.1" width="30.7" height="1.58" transform="translate(85.7 168.7) rotate(90)"/>
      <rect class="a957352a-1694-4c3f-b8c5-86d58e0dea24" x="-164.1" y="84.1" width="30.7" height="1.58" transform="translate(89.7 164.7) rotate(90)"/>
    </g>
    <g>
      <path class="fcbd4e40-d6b2-41a5-9230-616eac2145fd" d="M19.7,69.8h5.2V75H19.7V69.8Zm0,0" transform="translate(153.6 -68.9)"/>
      <path class="fcbd4e40-d6b2-41a5-9230-616eac2145fd" d="M58.6,69.8h5.3V75H58.6V69.8Zm0,0" transform="translate(153.6 -68.9)"/>
      <path class="fcbd4e40-d6b2-41a5-9230-616eac2145fd" d="M182.5,69.8h5.3V75h-5.3V69.8Zm0,0" transform="translate(153.6 -68.9)"/>
      <path class="fcbd4e40-d6b2-41a5-9230-616eac2145fd" d="M212.6,69.8h5.2V75h-5.2V69.8Zm0,0" transform="translate(153.6 -68.9)"/>
      <path class="fcbd4e40-d6b2-41a5-9230-616eac2145fd" d="M269.7,69.8h5.2V75h-5.2V69.8Zm0,0" transform="translate(153.6 -68.9)"/>
      <path class="fcbd4e40-d6b2-41a5-9230-616eac2145fd" d="M-68.6,114a25.6,25.6,0,0,1-9.1,1.4c-10.4,0-10.2-9.3-10.2-21.4s-.2-21.5,10.2-21.5c6.8,0,9.5,3.4,9.5,9.7h4.3c.2-9.3-4.5-13.3-13.8-13.3-15.7,0-14.5,15.7-14.5,25.1s-1.2,25,14.5,25a42,42,0,0,0,13.3-2V92.9h-14v3.6h9.8V114Zm24.9,5c11.4,0,12.2-11.3,12.2-14.7H-36c-.1,6.2-2.2,11.1-7.7,11.1C-53.9,115.4-54,106.8-54,94s.1-21.5,10.3-21.5c6.1,0,7.6,5.1,7.6,10.4h4.3c0-4.3-.2-14-11.9-14C-58.2,68.9-58.3,81-58.3,94s.1,25,14.6,25Zm33.4-45.5h5.6c11.9,0,13.8,4,13.8,17.8,0,19.7-1.3,23.2-14.2,23.2h-5.2v-41Zm-4.2,44.6h11c14.5,0,16.9-7.9,16.9-23.9S11.7,69.9-1.8,69.9H-14.5v48.2Zm34.7,0h4V84.4h-4v33.7ZM40.9,86.9c3.7,0,7.5,2.7,7.5,9.8,0,9.8-.3,11.4-1.3,14a6.4,6.4,0,0,1-6,3.8c-7.3,0-7.3-7-7.3-14,0-5,.1-13.6,7.1-13.6Zm7.8,1.7v-.2a9.2,9.2,0,0,0-8.3-4.7,9.5,9.5,0,0,0-9.5,6.7c-1,3.6-1,3.7-1,11.5s.7,15.8,10.3,15.8a9.3,9.3,0,0,0,8.2-4.1h.1c0,10.1.5,14.3-7.3,14.3-3.8,0-6.6-2.3-6.4-6.1h-4c-.2,3.4,1.4,9.3,9.8,9.3s11.9-4.4,11.9-11.8V90.9c0-1.7.1-3.4.2-6.6H48.7v4.3Zm10.6,29.5h4V84.4h-4v33.7ZM73.5,87.6v24.1c0,4.1,1.6,6.5,7,6.5a23.6,23.6,0,0,0,3.8-.2v-3.4l-3.1.2c-3.3,0-3.7-1.1-3.7-5.6V87.6h6.8V84.4H77.5V75.7l-4,1.7v7H68.1v3.2ZM106.1,107c0,4.4-3.7,8.6-8.3,8.6s-6.1-3.2-6.1-7c0-8.2,8.7-7.5,14.4-7.7V107Zm.3,11.1h4.1a72.1,72.1,0,0,1-.4-8.5V92.7c0-8.7-7.1-9-10.5-9-5.8,0-10.8,2.5-11.2,9h4.3c0-4,2.9-5.8,6.6-5.8,5.4,0,6.8,3,6.8,8v2.8c-6.8.5-18.7-.7-18.7,11.1,0,5.9,3.3,10,9.3,10a11,11,0,0,0,9.6-4.8h.1v4.1Zm10.6,0h4V69.9h-4v48.2Zm26.9,0h4.2V69.9h-4.2v48.2Zm15.3-21.2c0-7.5,3.7-10,7.3-10s6.2,3.7,6.2,7.6v23.6h4V94.3c0-4.4-.9-10.6-9.2-10.6-3.6,0-6.2,2-8.2,4.8h-.1V84.4h-4v33.7h4V96.9Zm24.1,21.2h4.1V84.4h-4.1v33.7Zm14.2-30.5v24.1c0,4.1,1.6,6.5,7,6.5a23.6,23.6,0,0,0,3.8-.2v-3.4l-3.1.2c-3.2,0-3.7-1.1-3.7-5.6V87.6h6.8V84.4h-6.8V75.7l-4,1.7v7h-5.4v3.2Zm15.7,30.5h4V84.4h-4v33.7ZM241.3,107a8.8,8.8,0,0,1-8.4,8.6c-4.1,0-6.1-3.2-6.1-7,0-8.2,8.7-7.5,14.5-7.7V107Zm.2,11.1h4.2a72.1,72.1,0,0,1-.4-8.5V92.7c0-8.7-7.1-9-10.5-9-5.9,0-10.9,2.5-11.2,9h4.2c0-4,3-5.8,6.7-5.8,5.3,0,6.8,3,6.8,8v2.8c-6.8.5-18.7-.7-18.7,11.1,0,5.9,3.2,10,9.3,10a10.7,10.7,0,0,0,9.5-4.8h.1v4.1Zm13.1-30.5v24.1c0,4.1,1.6,6.5,7,6.5a23.6,23.6,0,0,0,3.8-.2v-3.4l-3.1.2c-3.2,0-3.7-1.1-3.7-5.6V87.6h6.8V84.4h-6.8V75.7l-4,1.7v7h-5.4v3.2Zm15.7,30.5h4V84.4h-4v33.7Zm12.9-33.7h-4.4l10.1,33.7h4.6l10-33.7h-3.9L291.4,113h-.1l-8.1-28.6ZM329,102.1c0-10,0-18.4-11.6-18.4-7.6,0-11.6,4.5-11.6,14.2v8.3c0,10.2,5.8,12.6,11.6,12.6s11.1-2.8,11.6-11h-4.2c.1,4.6-2.4,7.8-7.4,7.8s-7.6-6.3-7.6-10.9v-2.6Zm-19.2-3.2c0-7.5,1.2-12,7.6-12s7.6,4.5,7.6,12Zm43.9,10.3c0-11.3-15.2-9-15.2-17.4,0-3,2.3-4.9,5.2-4.9,4.5,0,5.7,2.3,5.9,6.6h3.9c0-5.2-2.1-9.8-8.8-9.8s-10.2,2.2-10.2,8.4c0,11.2,15.2,8.9,15.2,17.7,0,3.8-1.9,6-5.8,6s-6.2-3.1-6.2-7.7h-4c-.1,7.1,2.8,10.7,10,10.7s10-3.2,10-9.6Zm0,0" transform="translate(153.6 -68.9)"/>
    </g>
  </g>
</svg>
